<svg xmlns="http://www.w3.org/2000/svg" class="pre-footer-icon aggregator-icon" viewBox="0 0 66.799 62.968">
      <g id="Group_22" data-name="Group 22" transform="translate(-4.915 -10.309)">
        <path id="Path_47" data-name="Path 47" d="M296.128,59.362" transform="translate(-262.894)" fill="#030504"/>
        <path id="Path_48" data-name="Path 48" d="M294.34,60.766" transform="translate(-262.894)" fill="#030504"/>
        <path id="Path_49" data-name="Path 49"
              d="M330.745,35.4c0,13.584-11.408,24.6-25.479,24.6s-25.479-11.012-25.479-24.6,11.407-24.595,25.479-24.595A26.481,26.481,0,0,1,329.42,27.557,21.426,21.426,0,0,1,330.745,35.4Z"
              transform="translate(-262.894)" fill="none" stroke="#1a1818" stroke-miterlimit="10" stroke-width="1"/>
        <path id="Path_50" data-name="Path 50" d="M281.564,24.83" transform="translate(-262.894)" fill="#030504"
              stroke="#1a1818" stroke-miterlimit="10" stroke-width="0.15"/>
        <path id="Path_51" data-name="Path 51"
              d="M275.66,39.66a31.565,31.565,0,0,0,9.191,16c.944.869,12.4,11.068,27.064,7.489,13.505-3.3,23.249-16.694,22.383-30.128-.63-9.764-6.659-16.345-8.764-18.452"
              transform="translate(-262.894)" fill="none" stroke="#1a1818" stroke-miterlimit="10" stroke-width="0.5"/>
        <path id="Path_52" data-name="Path 52" d="M323.242,12.636l4.342.495-2.05,1.438-1.04,2.424Z"
              transform="translate(-262.894)" fill="#1a1818" stroke="#1a1818" stroke-miterlimit="10"
              stroke-width="0.75"/>
        <path id="Path_53" data-name="Path 53"
              d="M275.921,39.671A12.915,12.915,0,0,0,270.3,31.34a9.438,9.438,0,0,1,5.623,8.331c1.072-3.054.388-4.871.036-5.586-.256-.522-.763-1.33-4.843-4.207-1.353-.954-2.5-1.715-3.305-2.24a18.07,18.07,0,0,0,.765,4.979,10.808,10.808,0,0,0,3.171,5.6,5.6,5.6,0,0,0,3.581,1.506A4.416,4.416,0,0,0,275.921,39.671Z"
              transform="translate(-262.894)" fill="#1a1818"/>
        <path id="Path_54" data-name="Path 54"
              d="M274.053,31.4a10.694,10.694,0,0,1,.764-2.808,7.425,7.425,0,0,1,1.634-2.427,4.85,4.85,0,0,0-1.729,2.146,8.125,8.125,0,0,0-.669,3.089,6.291,6.291,0,0,1-.016-3.51c.109-.328.326-.836,2.066-2.644.577-.6,1.066-1.078,1.41-1.407a16.3,16.3,0,0,1-.327,3.128,8.055,8.055,0,0,1-1.352,3.516,2.135,2.135,0,0,1-1.528.947A1.315,1.315,0,0,1,274.053,31.4Z"
              transform="translate(-262.894)" fill="#1a1818"/>
        <path id="Path_55" data-name="Path 55"
              d="M306.025,73.277h0m-8.344-57.511a3.611,3.611,0,0,1-.1,1.711,2.952,2.952,0,0,1-.2.384c-.705,1.215-.305,2.274-.747,2.586-.7.491-2.487-1.825-3.7-1.383-.469.171-1,.809-1.13,3.005-8.022,4.875-9.926,5.6-10.125,5.314-.313-.447,4.184-2.482,7.851-8.043,1.689-2.56,3.615-6.495,5.667-6.514a2.246,2.246,0,0,1,1.163.291A3.649,3.649,0,0,1,297.681,15.766Zm10.518-4.78c9.82.767,16.348,7.942,17.03,8.73a23.136,23.136,0,0,1,3.653,5.557,22.791,22.791,0,0,1,1.737,6.3c.566,4.255.019,8.644-.576,8.68-.567.035-1.6-3.853-1.536-4.947a4.445,4.445,0,0,0-.235-1.6,1.4,1.4,0,0,0-.075-.176,6.213,6.213,0,0,0-1.139-1.563c-1.063-1.15-.89-1.67-1.428-1.768-.429-.078-.835.228-1.63.842-1.236.957-1.337,1.46-2.4,1.989a3.056,3.056,0,0,1-1.285.363,3.412,3.412,0,0,1-1.186-.2s-2.75-.808-3.519-1.852l-.048-.067c-.075-.11-.131-.225-.385-.656-.16-.273-.24-.409-.285-.476a3.161,3.161,0,0,0-.784-.787l-.3-.361a4.691,4.691,0,0,1-1.317-2.354c-.143-.733.047-.93-.185-1.977-.151-.683-.286-.843-.481-1.767-.181-.863-.1-.9-.244-1.078-.468-.592-1.333-.209-2.529-.836-.29-.152-1.346-.706-1.226-1.229.08-.348.642-.525.872-.587.584-.291.608-.456.594-.525-.051-.243-.776-.4-1.36-.389-.511.008-.68.139-.842.026-.264-.185.025-.65,0-1.309a2.27,2.27,0,0,0-.823-1.72c-.736-.508-1.315.159-2.665-.281a20.632,20.632,0,0,1-2.1-1.221c-.633-.347-1.047-.56-1.044-.837,0-.221.232-.44.69-.661.367-.177.561-.26.566-.384.008-.195-.552-.285-.551-.376C301.172,11.259,304.755,10.718,308.2,10.986Zm-16.721,33.02a2.657,2.657,0,0,1-1.493.157,1.05,1.05,0,0,1-.522-.314,1.727,1.727,0,0,0-1.334-.855,2.081,2.081,0,0,1-1.476-.58.557.557,0,0,0-.645-.2c-.76.235-3.058-1.247-3.128-2.024a2.917,2.917,0,0,0-1.093-2.027c-.108-.111-.195-.182-.221-.206-1.234-1.111-1.373-5.233-1.373-5.233-.019-.572-.034-.858-.011-1.233a16.59,16.59,0,0,1,.8-3.622,22.323,22.323,0,0,1,2.872-6.675c.051-.07.144-.2.277-.38a23.648,23.648,0,0,1,2.489-2.765c3.538-3.294,7.8-6.007,8.581-5.227.8.8-3.341,4.238-4.008,10.344a16.358,16.358,0,0,0,.674,6.577c-.6,2.509-1.3,3.591-1.862,4.1a2.1,2.1,0,0,0-.75,1.3,1.658,1.658,0,0,0,.246.819,3.609,3.609,0,0,1,.327,1.121c.053.471.009.589-.2.6-.274.024-.973-.855-1.1-1.372-.053-.188-.2-.267-.442-.259a5.022,5.022,0,0,1-.53-.008c-.416-.071-.973.086-.955.267.027.3-.177.376-.689.282a.728.728,0,0,0-.822.282c-.345.338-.362.448-.256,1.538.159,1.8.883,2.776,1.7,2.29a.56.56,0,0,0,.257-.58c-.045-.448.274-.714.892-.761.371-.032.371-.024.451,1.121l.071,1.153.583-.172c.512-.149.618-.126.981.149a1.241,1.241,0,0,1,.486.91c.093.667.323,1.068.678,1.191a.378.378,0,0,0,.116.023.442.442,0,0,0,.215-.052m0,0a1.794,1.794,0,0,1,.617-.135c.534-.027.763.134.959-.021a.964.964,0,0,0,.234-.528,1.362,1.362,0,0,1,.1-.334s.016-.031.033-.061c.355-.6,2.55-.805,2.55-.805a6.616,6.616,0,0,0,1.566-.2c.507-.158.478-.209.8-.283,1.245-.287,1.887.752,3.01.481a8.6,8.6,0,0,1,1.193-.228c.121-.01.272-.013.449-.016.23,0,.41,0,.452,0a4.033,4.033,0,0,1,1.759.494c.435.247.4.423.72.554.9.36,2.129.024,4.708-.4,2.54-.42,1.009-.038,1.811-.188a1.7,1.7,0,0,1,1.165.012.859.859,0,0,1,.371.5,1.748,1.748,0,0,1,.319.823,3.378,3.378,0,0,1-.451,1.686,1.1,1.1,0,0,0-.2.6.938.938,0,0,0,.162.507,4.614,4.614,0,0,1,.2,2.541,2.036,2.036,0,0,1-.253.709,3.032,3.032,0,0,1-.8.727c-.7.532-.8.528-.974.768a2.375,2.375,0,0,0-.307.847c-.181.724-.067.75-.221,1.083a2,2,0,0,1-.477.737c-.062.008-.115.11-.106.227.026.275-.513.777-.866.816a.417.417,0,0,0-.144.052c-.989.306-4.241,3.35-5.185,3a.459.459,0,0,1-.066-.027,4.338,4.338,0,0,1-.808-.729,17.587,17.587,0,0,1-2.865-3.189c-.06-.115-.326-.5-.671-1.043s-.725-.706-2.254-1.028a6.439,6.439,0,0,1-2.342-1.443,15.042,15.042,0,0,0-1.794-1.286c-.3.033-.5-.531-.5-.957a1.2,1.2,0,0,1,.139-.5,2.529,2.529,0,0,0-.616-3.081,1.535,1.535,0,0,0-.349-.258,1.26,1.26,0,0,0-.142-.062,1.333,1.333,0,0,0-.72-.041m-1.1-3.969h0m.1-2.556h0m1.156-7.829c-1.306-.246-8.387-1.62-8.372-3.439.013-1.567,5.294-4.138,8.213-1.915a5.252,5.252,0,0,1,1.8,3.614l-.008.494c-.933-1.584-.93-2.139-.732-2.342.5-.519,3.085.422,3.588-.072.031-.03.178-.183.251-.152s.04.184.014.305c-1.4.487-1.687.763-1.663.928.008.058.073.216-.018.313a.27.27,0,0,1-.177.071,2.682,2.682,0,0,0-.68.549c-.2.2-.647.517-.783.435-.349-.211,1-3.18,1.042-3.164a8.131,8.131,0,0,1-1.479,3.176,2.274,2.274,0,0,0-.671.933,1.754,1.754,0,0,0-.091.361Zm.179-7.583c.052.045.133.17.279.184.306.029.409-.475.745-.506.311-.03.571.469.875.737.174.154.01.448.557.408a1.346,1.346,0,0,1,1.229,1.177c.051.3.035.384.192.53.211.2.485.143.767.413a.681.681,0,0,1,.172.225s.146.348-.237.908c-.665.97-8.69,1.25-9.108-.805C286.956,23.764,291.255,21.592,291.806,22.069Zm7.465-4.824-.042-.008a1.134,1.134,0,0,1-.433-.164c-.3-.173-.292-.2.221-.714s.83-.643,1.308-.518c.454.12,0,1.363-.433,1.436A2.724,2.724,0,0,1,299.271,17.245Z"
              transform="translate(-262.894)" fill="#030504"/>
        <path id="Path_56" data-name="Path 56" d="M313.273,16.994" transform="translate(-262.894)" fill="#030504"/>
        <path id="Path_57" data-name="Path 57" d="M313.882,13.56" transform="translate(-262.894)" fill="#030504"/>
        <path id="Path_58" data-name="Path 58" d="M294.9,26.333" transform="translate(-262.894)" fill="#030504"/>
        <path id="Path_59" data-name="Path 59" d="M295.023,20.206" transform="translate(-262.894)" fill="#030504"/>
        <path id="Path_60" data-name="Path 60" d="M324.813,30.084" transform="translate(-262.894)" fill="#030504"/>
        <path id="Path_61" data-name="Path 61" d="M286.128,32.234" transform="translate(-262.894)" fill="#030504"/>
      </g>
    </svg>