<svg xmlns="http://www.w3.org/2000/svg" xmlns:xlink="http://www.w3.org/1999/xlink" width="398.66" height="398.666" viewBox="0 0 398.66 398.666">
  <defs>
    <linearGradient id="linear-gradient" y1="0.829" x2="0.62" gradientUnits="objectBoundingBox">
      <stop offset="0" stop-color="#f8b162"/>
      <stop offset="1" stop-color="#98444e"/>
    </linearGradient>
  </defs>
  <g id="Group_2423" data-name="Group 2423" transform="translate(-2529.429 -17.769)">
    <g id="Group_10" data-name="Group 10">
      <path id="Path_229" data-name="Path 229" d="M2585.878,258.612c-12.437-22.855-22.53-61.624-34.551-66.879a49.888,49.888,0,0,1-11.918-7.163c-2.762-2.242-5.123-4.674-5-4.819.094-.111,1.54,1.217,3.851,2.393a19.651,19.651,0,0,0,5.326,1.8l2.576-.014c12.066-.064,38.631.253,68.152,11.229,9.57,3.559,26.517,10.025,44.408,24.782,16.7,13.775,25.786,27.814,32.686,38.67,3.084,4.852,17.015,27.249,25.119,60.49.742,3.043,9.379,39.12,3.137,41.638-2.921,1.178-8.217-6.223-12-10.979-24.637-30.974-53.515-24.585-89.873-54.638C2608.851,287.732,2595.889,277.012,2585.878,258.612Zm121.873,62.539" fill="#38a649"/>
    </g>
    <path id="Path_231" data-name="Path 231" d="M2603.081,176.732" fill="none"/>
    <g id="Group_11" data-name="Group 11">
      <path id="Path_232" data-name="Path 232" d="M2640.3,158.693c5.962-1.921,11.91-3.818,17.952-5.367,3.011-.816,5.995-1.67,9.033-2.361,3.018-.73,6.015-1.533,9.06-2.1,3.044-.586,6.055-1.3,9.086-1.838l8.217-1.421a9.976,9.976,0,0,0,1.525-.006,7.741,7.741,0,0,0,3.005-.9,7.921,7.921,0,0,0,3.834-5.1,9.78,9.78,0,0,0,.287-2.184,10.641,10.641,0,0,0-.067-1.783,19.976,19.976,0,0,0-.515-2.928c-.228-.89-.528-1.8-.789-2.632l-.79-2.142-1.439-3.733c-.9-2.49-1.726-5-2.431-7.524,12.809.254,25.616.21,38.422.385,12.807-.172,25.614-.135,38.42-.382-.348,1.251-.736,2.506-1.111,3.747l-1.271,3.677-1.519,3.944-.8,2.174c-.261.823-.515,1.623-.736,2.5a19.942,19.942,0,0,0-.515,2.928,10.622,10.622,0,0,0-.06,1.783,9.743,9.743,0,0,0,.294,2.188,7.878,7.878,0,0,0,3.84,5.078,7.718,7.718,0,0,0,2.985.89,10.377,10.377,0,0,0,1.525.006l7.882,1.369c2.924.493,5.821,1.2,8.745,1.774,2.938.554,5.821,1.314,8.719,2.056,2.911.7,5.8,1.506,8.684,2.339,2.891.814,5.8,1.589,8.646,2.56,2.856.936,5.747,1.82,8.584,2.844,2.864.969,5.7,2,8.491,3.13,2.858,1,5.613,2.342,8.431,3.514-2.449-1.83-4.885-3.637-7.507-5.256-2.576-1.693-5.253-3.209-7.93-4.7-1.344-.739-2.663-1.559-4.041-2.218l-4.128-2.044c-2.737-1.416-5.553-2.636-8.364-3.9-2.79-1.324-5.667-2.418-8.551-3.5-2.877-1.111-5.755-2.234-8.712-3.162s-5.841-2.068-8.859-2.8l-7.446-1.947.561-1.425.823-1.733,1.753-3.844,1.72-4.235c.515-1.412,1.03-2.807,1.505-4.229s.931-2.857,1.332-4.329l.589-2.225c.193-.776.354-1.459.542-2.431a7,7,0,0,0,.113-.985,6.107,6.107,0,0,0-5.908-6.289l-.421-.01c-15.436-.478-30.873-.355-46.309-.558-15.436.21-30.872.072-46.308.564l-.455.014a6.329,6.329,0,0,0-.944.113,6.1,6.1,0,0,0-4.811,7.156c.194.974.349,1.653.549,2.43l.589,2.221c.4,1.469.863,2.9,1.325,4.326.95,2.84,2.02,5.62,3.172,8.36l1.84,4.055.822,1.77.5,1.26-7.735,2c-3.119.781-6.129,1.884-9.181,2.844-3.065.937-6.041,2.1-9.032,3.2s-5.982,2.207-8.893,3.523c-2.931,1.245-5.848,2.5-8.712,3.9-2.883,1.345-5.761,2.684-8.544,4.238-2.81,1.473-5.6,2.989-8.317,4.648-2.736,1.593-5.365,3.4-7.955,5.2,2.97-1.134,5.814-2.426,8.818-3.406Q2635.818,160.105,2640.3,158.693Zm135.058-23.523a2.485,2.485,0,0,1,.468.084l-1.164.024A2.119,2.119,0,0,1,2775.355,135.17Zm-81.336-.023a2.046,2.046,0,0,1,.71.107l-1.178-.027A2.428,2.428,0,0,1,2694.019,135.147Z" fill="#3d3d3c"/>
      <path id="Path_233" data-name="Path 233" d="M2853.705,31.472h40.821a19.886,19.886,0,0,1,19.86,19.865V90.575a6.852,6.852,0,0,0,13.7,0V51.337a33.6,33.6,0,0,0-33.563-33.568h-40.821a6.852,6.852,0,0,0,0,13.7Z" fill="#3d3d3c"/>
      <path id="Path_234" data-name="Path 234" d="M2536.28,97.426a6.852,6.852,0,0,0,6.852-6.851V51.337a19.884,19.884,0,0,1,19.859-19.865h40.816a6.852,6.852,0,0,0,0-13.7h-40.816a33.6,33.6,0,0,0-33.562,33.568V90.575A6.852,6.852,0,0,0,2536.28,97.426Z" fill="#3d3d3c"/>
      <path id="Path_235" data-name="Path 235" d="M2603.807,402.732h-40.816a19.884,19.884,0,0,1-19.859-19.867V343.63a6.852,6.852,0,0,0-13.7,0v39.235a33.6,33.6,0,0,0,33.562,33.57h40.816a6.852,6.852,0,0,0,0-13.7Z" fill="#3d3d3c"/>
      <path id="Path_236" data-name="Path 236" d="M2921.237,336.779a6.851,6.851,0,0,0-6.851,6.851v39.235a19.886,19.886,0,0,1-19.86,19.867h-40.821a6.852,6.852,0,0,0,0,13.7h40.821a33.6,33.6,0,0,0,33.563-33.57V343.63A6.852,6.852,0,0,0,2921.237,336.779Z" fill="#3d3d3c"/>
      <path id="Path_237" data-name="Path 237" d="M2544.138,180.9c-.1,0-.417,0-.836-.021a18.938,18.938,0,0,1-3.6-.637,18.535,18.535,0,0,1-3.019-1.126,17.592,17.592,0,0,1-2.892-1.815,21.539,21.539,0,0,1-1.932-1.666c-.236-.226-.771-.739-1.355-1.387-.24-.266-.483-.529-.722-.8-.517-.577.468,1.985,2.57,6.329.677,1.4,1.167,2.4,2.161,4.453.92,1.9,1.664,3.452,2.147,4.463l.061.1c2.813,4.7,5.51,9.742,8,14.74,1.254,2.51,2.483,5.033,3.6,7.592,1.2,2.556,2.229,5.082,3.229,7.6,1.068,2.435,1.947,5.235,2.88,7.935l.691,2.037.543,1.837,1.115,4.032c1.429,5.422,2.712,11.009,4.087,16.614,2.752,11.221,5.92,22.6,10.531,33.554a124.812,124.812,0,0,0,18.161,30.8,117.591,117.591,0,0,0,12.39,13.085,106.2,106.2,0,0,0,14.31,10.973,143.391,143.391,0,0,0,32.324,15.115,209.421,209.421,0,0,0,34.391,8.1q8.717,1.322,17.511,2.011c5.893.438,11.638.736,17.766.656a5.091,5.091,0,0,0,5.02-5.049,121.556,121.556,0,0,0-2.752-24.4c-.792-3.942-1.7-7.835-2.685-11.709-.422-1.65-.858-3.28-1.3-5.207H2753.5c-1.087,3.74-2.185,7.076-3.145,10.329-.684,3.522-1.342,6.929-1.979,10.193-.316,1.63-.617,3.222-.92,4.778a28.1,28.1,0,0,0-.658,4.6c-.221,3.031-.43,5.9-.623,8.6s-.4,5.182-.5,7.487c.107,2.288.2,4.39.288,6.286.383,7.588.759,11.934.759,11.934s.812-4.286,1.959-11.8q.434-2.821.947-6.22c.536-2.191,1.121-4.564,1.738-7.1.6-2.5,1.241-5.169,1.919-7.978.6-2.8,1.786-5.678,2.712-8.7.994-3,2.028-6.136,3.094-9.374,1.4-3.125,2.725-6.384,4.142-9.7l1.282-3.051c2.6-.05,5.47-.046,8.147-.321a112.538,112.538,0,0,0,31.787-7.614c2.53-.987,5.027-2.048,7.5-3.212,1.242-.575,2.47-1.178,3.706-1.82.671-.358,1.12-.566,2.086-1.154l1.746-1.155a75.909,75.909,0,0,0,12.792-10.752,89.6,89.6,0,0,0,17.693-27.771,164.939,164.939,0,0,0,8.932-30.892c.724-3.495,1.348-7,2.012-10.413l1.378-.577q5.013-2.118,9.732-4.118c3.248-1.071,6.39-2.105,9.4-3.1,3.041-.924,5.9-2.1,8.746-2.706l8.061-1.921c2.537-.616,4.933-1.147,7.134-1.733l6.162-.94c7.469-1.144,11.813-1.961,11.813-1.961s-4.31-.38-11.994-.759c-1.927-.086-4.062-.184-6.383-.287-2.309.1-4.806.314-7.485.492l-8.577.608c-3.04.157-6.1,1.04-9.389,1.572q-4.924.948-10.236,1.974l-5.584,1.74q1.115-3.646,2.537-7.2a98.511,98.511,0,0,1,6.5-13.309,86.3,86.3,0,0,1,6.423-9.531,6.83,6.83,0,0,0-3.792-12.663l-235.481,6.852,207.252,6.028c9.826.465,12.786,9.826,10.229,17.1l.08-.067c-.255.606-.557,1.194-.8,1.807a96.546,96.546,0,0,0-4.811,15.689c-1.182,5.286-2,10.369-3.041,15.394a154.917,154.917,0,0,1-8.343,28.978,79.5,79.5,0,0,1-15.638,24.626,65.651,65.651,0,0,1-11.088,9.311l-1.51,1.007-1.343.72c-1.073.558-2.187,1.107-3.316,1.628-2.241,1.061-4.55,2.038-6.872,2.948a102.293,102.293,0,0,1-28.847,6.935c-2.484.254-4.8.235-7.4.27h-54.768a6.214,6.214,0,0,0-1.523.246,5.141,5.141,0,0,0-3.4,6.43l.014.033c1.1,3.559,2.14,7.327,3.086,11.027.37,1.462.658,2.934,1.007,4.4-.59-1.114-1.174-2.221-1.778-3.355q-1.53-2.61-3.094-5.293c-2.06-3.58-4.209-7.213-6.592-10.779-2.308-3.62-4.677-7.281-7.288-10.84-2.523-3.626-5.135-7.239-7.946-10.759-1.384-1.773-2.767-3.559-4.162-5.34l-4.383-5.212c-2.873-3.533-6.007-6.858-9.074-10.237-3.034-3.4-6.356-6.551-9.5-9.815-3.282-3.139-6.538-6.284-9.872-9.281-6.693-5.975-13.452-11.663-20.27-16.788-6.779-5.178-13.552-9.9-20.123-14.118-6.537-4.289-12.946-7.963-18.872-11.308a247.649,247.649,0,0,0-29.647-14.231c-1.987-.808-3.645-1.453-4.782-1.89l-.886-1.453q3.024-.076,6.185-.053c5.343.042,10.421.314,15.21.746l7.556.933,7.592.817c5.054.6,10.1,1.415,15.107,2.459a154.254,154.254,0,0,1,29.331,9.294c2.369,1.016,4.7,2.133,7.027,3.264,2.282,1.208,4.645,2.316,6.887,3.627,2.294,1.228,4.5,2.593,6.724,3.971,2.235,1.351,4.336,2.9,6.524,4.346-1.953-1.73-3.839-3.573-5.873-5.229-2.013-1.689-4.046-3.372-6.168-4.928a124.808,124.808,0,0,0-13.229-8.775,132.428,132.428,0,0,0-29.122-13.182c-2.406-.744-4.5-1.31-6.134-1.726a137.627,137.627,0,0,0-23.38-3.69c-6.62-.516-5.071,0-13.45-.566C2560.69,181.8,2547.328,180.9,2544.138,180.9Zm24.457-.064,133.373,173.733c-5.586-.445-11.167-1.084-16.707-1.924a197.924,197.924,0,0,1-32.578-7.685,132.367,132.367,0,0,1-29.9-14,95.718,95.718,0,0,1-12.961-9.972,107.5,107.5,0,0,1-11.234-11.9,114.548,114.548,0,0,1-16.62-28.306c-4.282-10.207-7.3-21-10-32.037-1.358-5.527-2.636-11.124-4.121-16.788l-1.171-4.261-.683-2.283-.689-2.034c-.937-2.72-1.766-5.395-2.977-8.229-1.1-2.817-2.242-5.6-3.48-8.237-1.177-2.7-2.449-5.333-3.76-7.953-1.218-2.441-2.476-4.834-3.76-7.222,1.646.679,3.612,1.522,5.881,2.548a285,285,0,0,1,28.926,15.223c5.76,3.539,11.976,7.414,18.286,11.9,6.35,4.416,12.866,9.327,19.37,14.693,6.551,5.307,13,11.161,19.371,17.276,3.172,3.078,6.263,6.29,9.374,9.489,2.971,3.332,6.115,6.537,8.973,9.989,2.884,3.426,5.835,6.8,8.517,10.364l4.109,5.26c1.291,1.8,2.59,3.593,3.874,5.379,2.622,3.54,5.045,7.166,7.373,10.8,2.423,3.566,4.6,7.226,6.718,10.838,2.2,3.56,4.162,7.18,6.035,10.74.957,1.773,1.894,3.533,2.824,5.265.856,1.767,1.7,3.52,2.529,5.246,3.185,6.331,5.714,12.533,8.15,18.288C2708.425,354.934,2705.18,354.813,2701.968,354.569Z" fill="#3d3d3c"/>
    </g>
    <path id="Path_238" data-name="Path 238" d="M2833.9,210.384c-9.139,3.476-28.878,5.4-39.135,5.4H2665.6s38.506,23.7,53.085,85.364h49.829c14.018,0,62-13.141,70.945-65.665,0,0,1.117-2.858,4.282-19.7C2844.828,210.173,2842.272,207.2,2833.9,210.384Z" opacity="0.997" fill="url(#linear-gradient)"/>
  </g>
</svg>
